#!OML:ASF H:\GeneralSubjects\Female5\Project 1\Capture day 1\Session 1\Female5.ASF
:FULLY-SPECIFIED
:DEGREES
205
root -32.4038 15.6663 3.48767 -173.393 -4.01958 -174.5
lowerback 4.59999 1.49502 1.27612
upperback -10.8445 1.52151 5.07724
thorax -14.6522 0.440968 4.83041
lowerneck -17.7413 2.0509 -1.18895
upperneck 37.1251 -0.119803 1.46205
head 16.2537 -1.16573 0.490224
rclavicle -5.1684e-015 6.36111e-014
rhumerus -52.2633 28.9137 -90.9544
rradius 34.9155
rwrist -24.8892
rhand -20.4088 -26.6487
rfingers 7.12502
rthumb 5.94518 -56.5453
lclavicle -5.1684e-015 6.36111e-014
lhumerus -47.9262 -0.161429 89.1241
lradius 33.12
lwrist -8.52808
lhand -23.6627 33.17
lfingers 7.12502
lthumb 2.80314 63.1313
rfemur 0 0 0
rtibia 0
rfoot 0 0
rtoes 0
lfemur -27.7889 -13.0277 -4.25068
ltibia 25.4798
lfoot -23.0632 20.9553
ltoes -61.0959
206
root -32.4017 15.6641 3.48837 -173.42 -4.07357 -174.552
lowerback 4.51885 1.49138 1.17044
upperback -10.8018 1.50755 5.07763
thorax -14.5508 0.448318 4.88778
lowerneck -17.2773 2.22455 -1.20239
upperneck 36.7745 0.236291 1.36735
head 15.9539 -1.01746 0.521188
rclavicle -1.2921e-014 1.38354e-013
rhumerus -52.188 28.9438 -90.9738
rradius 34.8291
rwrist -24.8203
rhand -20.4563 -26.9959
rfingers 7.12502
rthumb 5.89926 -56.8938
lclavicle -1.2921e-014 1.38354e-013
lhumerus -47.7709 -0.0154197 89.0693
lradius 33.1729
lwrist -8.51183
lhand -23.3707 33.1105
lfingers 7.12502
lthumb 3.08511 63.068
rfemur 0 0 0
rtibia 0
rfoot 0 0
rtoes 0
lfemur -27.7445 -12.9548 -4.34517
ltibia 25.3758
lfoot -22.9874 20.9626
ltoes -61.0376
207
root -32.3987 15.6618 3.4879 -173.478 -4.15469 -174.71
lowerback 4.52022 1.47267 0.975966
upperback -10.7822 1.46745 5.05289
thorax -14.5308 0.454058 4.9742
lowerneck -17.4071 2.22098 -1.39636
upperneck 36.7831 0.20552 1.6603
head 15.9875 -1.00903 0.678802
rclavicle 2.38542e-014 -1.59028e-015
rhumerus -52.168 28.9969 -91.0517
rradius 34.721
rwrist -24.7717
rhand -20.3469 -27.1363
rfingers 7.12502
rthumb 6.00494 -57.0312
lclavicle 2.38542e-014 -1.59028e-015
lhumerus -47.7839 0.045408 89.0741
lradius 33.2987
lwrist -8.39838
lhand -23.4254 33.0624
lfingers 7.12502
lthumb 3.03229 63.0205
rfemur 0 0 0
rtibia 0
rfoot 0 0
rtoes 0
lfemur -27.6486 -12.9188 -4.59568
ltibia 25.2834
lfoot -22.9337 20.6898
ltoes -60.7351
208
root -32.3962 15.6621 3.48774 -173.549 -4.19834 -174.797
lowerback 4.54383 1.45622 0.866488
upperback -10.7626 1.43983 5.05187
thorax -14.5239 0.45632 5.03821
lowerneck -17.3714 2.2708 -1.39705
upperneck 36.6434 0.348509 1.5925
head 15.9051 -0.945783 0.678787
rclavicle -8.54774e-015 3.97569e-015
rhumerus -52.1217 29.0342 -91.1092
rradius 34.5496
rwrist -24.709
rhand -20.5396 -26.9142
rfingers 7.12502
rthumb 5.81888 -56.8143
lclavicle -8.54774e-015 3.97569e-015
lhumerus -47.8691 0.0101601 89.1512
lradius 33.4747
lwrist -8.09857
lhand -23.6334 33.1441
lfingers 7.12502
lthumb 2.83145 63.105
rfemur 0 0 0
rtibia 0
rfoot 0 0
rtoes 0
lfemur -27.5595 -12.9083 -4.74042
ltibia 25.2664
lfoot -22.9708 20.5816
ltoes -60.3568
209
root -32.3934 15.6627 3.48877 -173.585 -4.22191 -174.782
lowerback 4.54156 1.4476 0.853921
upperback -10.7535 1.42851 5.0712
thorax -14.5119 0.453753 5.06853
lowerneck -17.1976 2.35085 -1.15945
upperneck 36.3687 0.586744 1.21915
head 15.7254 -0.846285 0.52341
rclavicle 1.39149e-015 -2.3059e-014
rhumerus -52.1251 29.0917 -91.1606
rradius 34.4831
rwrist -24.7826
rhand -20.7034 -26.9661
rfingers 7.12502
rthumb 5.66071 -56.8705
lclavicle 1.39149e-015 -2.3059e-014
lhumerus -47.9302 0.035376 89.1985
lradius 33.5332
lwrist -7.90381
lhand -23.7008 33.1816
lfingers 7.12502
lthumb 2.76631 63.1434
rfemur 0 0 0
rtibia 0
rfoot 0 0
rtoes 0
lfemur -27.5305 -12.7987 -4.71218
ltibia 25.2645
lfoot -22.8815 20.4782
ltoes -60.0551
